<?xml version="1.0" encoding="UTF-8" standalone="no"?>
<svg width="100" height="100" viewBox="0 0 100 100" fill="none" xmlns="http://www.w3.org/2000/svg">
  <circle cx="50" cy="50" r="45" fill="url(#diversity_gradient)" />
  <circle cx="50" cy="50" r="40" stroke="white" stroke-width="2" stroke-opacity="0.6" fill="none" />
  
  <!-- Brain/Mind Emotion Diversity Icon -->
  <g>
    <!-- Brain Outline -->
    <path d="M37.5 50C37.5 46.25 34.375 43.125 30.625 43.125C26.875 43.125 23.75 46.25 23.75 50C23.75 52.5 25 54.6875 27.1875 55.9375" stroke="white" stroke-width="2.5" stroke-linecap="round" stroke-linejoin="round" />
    <path d="M27.1875 55.9375C26.5625 57.1875 26.25 58.5938 26.25 60C26.25 65 30.3125 69.0625 35.3125 69.0625C36.875 69.0625 38.4375 68.5938 39.6875 67.8125" stroke="white" stroke-width="2.5" stroke-linecap="round" stroke-linejoin="round" />
    <path d="M39.6875 67.8125C41.5625 69.375 44.0625 70.3125 46.875 70.3125C53.75 70.3125 59.375 64.6875 59.375 57.8125C59.375 56.5625 59.0625 55.3125 58.75 54.0625" stroke="white" stroke-width="2.5" stroke-linecap="round" stroke-linejoin="round" />
    <path d="M58.75 54.0625C61.5625 53.75 63.75 51.25 63.75 48.125C63.75 44.6875 60.9375 41.875 57.5 41.875C56.5625 41.875 55.625 42.1875 54.6875 42.5" stroke="white" stroke-width="2.5" stroke-linecap="round" stroke-linejoin="round" />
    <path d="M54.6875 42.5C54.0625 39.0625 51.25 36.25 47.5 36.25C45.3125 36.25 43.4375 37.1875 42.1875 38.75" stroke="white" stroke-width="2.5" stroke-linecap="round" stroke-linejoin="round" />
    <path d="M42.1875 38.75C41.25 37.8125 39.6875 37.1875 38.125 37.1875C34.6875 37.1875 31.875 39.6875 31.25 43.125" stroke="white" stroke-width="2.5" stroke-linecap="round" stroke-linejoin="round" />
    <path d="M35.3125 50C35.3125 47.5 33.125 45.3125 30.625 45.3125" stroke="white" stroke-width="2.5" stroke-linecap="round" stroke-linejoin="round" />
    <path d="M44.0625 53.4375C44.0625 57.1875 47.1875 60.3125 50.9375 60.3125C54.6875 60.3125 57.8125 57.1875 57.8125 53.4375" stroke="white" stroke-width="2.5" stroke-linecap="round" stroke-linejoin="round" />
    <path d="M44.0625 42.5C44.0625 40 46.25 37.8125 48.75 37.8125" stroke="white" stroke-width="2.5" stroke-linecap="round" stroke-linejoin="round" />
    <path d="M57.5 44.6875C56.5625 44.6875 55.9375 44.0625 55.9375 43.125" stroke="white" stroke-width="2.5" stroke-linecap="round" stroke-linejoin="round" />
    <path d="M59.0625 52.1875C59.0625 53.75 57.8125 55 56.25 55" stroke="white" stroke-width="2.5" stroke-linecap="round" stroke-linejoin="round" />
  </g>
  
  <!-- Emotion Color Circles -->
  <circle cx="30" cy="48" r="4" fill="#FF6B8B" />
  <circle cx="38" cy="65" r="4" fill="#4DABF7" />
  <circle cx="55" cy="65" r="4" fill="#FFD43B" />
  <circle cx="63" cy="48" r="4" fill="#A9E34B" />
  <circle cx="50" cy="35" r="4" fill="#9775FA" />
  
  <!-- Emotion Connection Lines -->
  <line x1="32.5" y1="50.5" x2="37" y2="62.5" stroke="white" stroke-opacity="0.4" stroke-width="1" stroke-dasharray="2 2" />
  <line x1="41" y1="65" x2="52" y2="65" stroke="white" stroke-opacity="0.4" stroke-width="1" stroke-dasharray="2 2" />
  <line x1="58" y1="62.5" x2="61.5" y2="50.5" stroke="white" stroke-opacity="0.4" stroke-width="1" stroke-dasharray="2 2" />
  <line x1="60.5" y1="46" x2="52.5" y2="37" stroke="white" stroke-opacity="0.4" stroke-width="1" stroke-dasharray="2 2" />
  <line x1="47.5" y1="37" x2="32.5" y2="46" stroke="white" stroke-opacity="0.4" stroke-width="1" stroke-dasharray="2 2" />
  
  <!-- Pulse animation for circles -->
  <g>
    <circle cx="30" cy="48" r="5" stroke="white" stroke-width="1" fill="none">
      <animate attributeName="r" values="5;7;5" dur="3s" repeatCount="indefinite" begin="0s" />
      <animate attributeName="stroke-opacity" values="1;0;1" dur="3s" repeatCount="indefinite" begin="0s" />
    </circle>
    <circle cx="38" cy="65" r="5" stroke="white" stroke-width="1" fill="none">
      <animate attributeName="r" values="5;7;5" dur="3s" repeatCount="indefinite" begin="0.6s" />
      <animate attributeName="stroke-opacity" values="1;0;1" dur="3s" repeatCount="indefinite" begin="0.6s" />
    </circle>
    <circle cx="55" cy="65" r="5" stroke="white" stroke-width="1" fill="none">
      <animate attributeName="r" values="5;7;5" dur="3s" repeatCount="indefinite" begin="1.2s" />
      <animate attributeName="stroke-opacity" values="1;0;1" dur="3s" repeatCount="indefinite" begin="1.2s" />
    </circle>
    <circle cx="63" cy="48" r="5" stroke="white" stroke-width="1" fill="none">
      <animate attributeName="r" values="5;7;5" dur="3s" repeatCount="indefinite" begin="1.8s" />
      <animate attributeName="stroke-opacity" values="1;0;1" dur="3s" repeatCount="indefinite" begin="1.8s" />
    </circle>
    <circle cx="50" cy="35" r="5" stroke="white" stroke-width="1" fill="none">
      <animate attributeName="r" values="5;7;5" dur="3s" repeatCount="indefinite" begin="2.4s" />
      <animate attributeName="stroke-opacity" values="1;0;1" dur="3s" repeatCount="indefinite" begin="2.4s" />
    </circle>
  </g>
  
  <!-- Glow effect -->
  <circle cx="50" cy="50" r="48" stroke="url(#glow_gradient)" stroke-width="4" stroke-opacity="0.5" fill="none">
    <animate attributeName="stroke-opacity" values="0.3;0.7;0.3" dur="3s" repeatCount="indefinite" />
  </circle>
  
  <!-- Definitions for gradients -->
  <defs>
    <linearGradient id="diversity_gradient" x1="20" y1="20" x2="80" y2="80" gradientUnits="userSpaceOnUse">
      <stop offset="0" stop-color="#B197FC"/>
      <stop offset="1" stop-color="#7048E8"/>
    </linearGradient>
    <radialGradient id="glow_gradient" cx="50" cy="50" r="50" gradientUnits="userSpaceOnUse">
      <stop offset="0" stop-color="#D0BFFF"/>
      <stop offset="1" stop-color="#D0BFFF" stop-opacity="0"/>
    </radialGradient>
  </defs>
</svg>