<?xml version="1.0" encoding="UTF-8" standalone="no"?>
<svg width="100" height="100" viewBox="0 0 100 100" fill="none" xmlns="http://www.w3.org/2000/svg">
  <circle cx="50" cy="50" r="45" fill="url(#journey_gradient)" />
  <circle cx="50" cy="50" r="40" stroke="white" stroke-width="2" stroke-opacity="0.6" fill="none" />
  
  <!-- Rocket Icon -->
  <g>
    <path d="M50 30C56.25 36.25 58.3333 45 58.3333 55V56.6667H41.6667V55C41.6667 45 43.75 36.25 50 30Z" fill="white" fill-opacity="0.7" stroke="white" stroke-width="2" stroke-linecap="round" stroke-linejoin="round"/>
    <path d="M41.6667 60H58.3333L60 70H40L41.6667 60Z" fill="white" fill-opacity="0.7" stroke="white" stroke-width="2" stroke-linecap="round" stroke-linejoin="round"/>
    <circle cx="50" cy="47.5" r="5" fill="#FF6B8B" stroke="white" stroke-width="1"/>
    
    <!-- Rocket Flames -->
    <path d="M45 70L43.3333 75" stroke="white" stroke-width="2" stroke-linecap="round">
      <animate attributeName="d" values="M45 70L43.3333 75;M45 70L43.3333 78;M45 70L43.3333 75" dur="0.5s" repeatCount="indefinite"/>
    </path>
    <path d="M50 70L50 77" stroke="white" stroke-width="2" stroke-linecap="round">
      <animate attributeName="d" values="M50 70L50 77;M50 70L50 80;M50 70L50 77" dur="0.7s" repeatCount="indefinite"/>
    </path>
    <path d="M55 70L56.6667 75" stroke="white" stroke-width="2" stroke-linecap="round">
      <animate attributeName="d" values="M55 70L56.6667 75;M55 70L56.6667 78;M55 70L56.6667 75" dur="0.6s" repeatCount="indefinite"/>
    </path>
  </g>
  
  <!-- Stars in background -->
  <g>
    <circle cx="30" cy="40" r="1.5" fill="white">
      <animate attributeName="opacity" values="0.2;1;0.2" dur="3s" repeatCount="indefinite"/>
    </circle>
    <circle cx="70" cy="40" r="1.5" fill="white">
      <animate attributeName="opacity" values="0.2;1;0.2" dur="4s" repeatCount="indefinite" begin="1s"/>
    </circle>
    <circle cx="25" cy="60" r="1.5" fill="white">
      <animate attributeName="opacity" values="0.2;1;0.2" dur="5s" repeatCount="indefinite" begin="2s"/>
    </circle>
    <circle cx="75" cy="60" r="1.5" fill="white">
      <animate attributeName="opacity" values="0.2;1;0.2" dur="3.5s" repeatCount="indefinite" begin="0.5s"/>
    </circle>
  </g>
  
  <!-- Glow effect -->
  <circle cx="50" cy="50" r="48" stroke="url(#glow_gradient)" stroke-width="4" stroke-opacity="0.5" fill="none">
    <animate attributeName="stroke-opacity" values="0.3;0.7;0.3" dur="3s" repeatCount="indefinite"/>
  </circle>
  
  <!-- Journey path line -->
  <path d="M25 80C30 65 45 70 50 60C55 50 70 50 75 35" stroke="white" stroke-dasharray="2 2" stroke-width="2" stroke-linecap="round">
    <animate attributeName="stroke-dashoffset" from="100" to="0" dur="10s" repeatCount="indefinite"/>
  </path>
  
  <!-- Definitions for gradients -->
  <defs>
    <linearGradient id="journey_gradient" x1="20" y1="20" x2="80" y2="80" gradientUnits="userSpaceOnUse">
      <stop offset="0" stop-color="#6D59FF"/>
      <stop offset="1" stop-color="#3626B3"/>
    </linearGradient>
    <radialGradient id="glow_gradient" cx="50" cy="50" r="50" gradientUnits="userSpaceOnUse">
      <stop offset="0" stop-color="#8E7DFF"/>
      <stop offset="1" stop-color="#8E7DFF" stop-opacity="0"/>
    </radialGradient>
  </defs>
</svg>