<?xml version="1.0" encoding="UTF-8" standalone="no"?>
<svg xmlns="http://www.w3.org/2000/svg" xmlns:xlink="http://www.w3.org/1999/xlink" width="1000" height="1000" viewBox="0 0 1000 1000">
  <defs>
    <radialGradient id="starGlow" cx="0.5" cy="0.5" r="0.5" fx="0.5" fy="0.5">
      <stop offset="0%" stop-color="white"/>
      <stop offset="100%" stop-color="rgba(255,255,255,0)"/>
    </radialGradient>
    <radialGradient id="purpleGlow" cx="0.5" cy="0.5" r="0.5" fx="0.5" fy="0.5">
      <stop offset="0%" stop-color="#9370DB"/>
      <stop offset="100%" stop-color="rgba(147,112,219,0)"/>
    </radialGradient>
    <radialGradient id="blueGlow" cx="0.5" cy="0.5" r="0.5" fx="0.5" fy="0.5">
      <stop offset="0%" stop-color="#4169E1"/>
      <stop offset="100%" stop-color="rgba(65,105,225,0)"/>
    </radialGradient>
    <radialGradient id="goldGlow" cx="0.5" cy="0.5" r="0.5" fx="0.5" fy="0.5">
      <stop offset="0%" stop-color="#FFD700"/>
      <stop offset="100%" stop-color="rgba(255,215,0,0)"/>
    </radialGradient>
    <filter id="glow" x="-50%" y="-50%" width="200%" height="200%">
      <feGaussianBlur stdDeviation="5" result="blur"/>
      <feComposite in="SourceGraphic" in2="blur" operator="over"/>
    </filter>
  </defs>
  
  <!-- Background -->
  <rect width="100%" height="100%" fill="#000010"/>
  
  <!-- Larger cosmic clouds -->
  <circle cx="200" cy="300" r="300" fill="url(#purpleGlow)" opacity="0.1"/>
  <circle cx="800" cy="200" r="200" fill="url(#blueGlow)" opacity="0.08"/>
  <circle cx="500" cy="700" r="350" fill="url(#purpleGlow)" opacity="0.07"/>
  <circle cx="150" cy="800" r="180" fill="url(#goldGlow)" opacity="0.05"/>
  <circle cx="900" cy="850" r="250" fill="url(#purpleGlow)" opacity="0.09"/>
  
  <!-- Medium stars -->
  <g fill="white" filter="url(#glow)">
    <circle cx="100" cy="100" r="1.2" opacity="0.8"/>
    <circle cx="220" cy="150" r="1.3" opacity="0.7"/>
    <circle cx="350" cy="50" r="1.5" opacity="0.9"/>
    <circle cx="480" cy="120" r="1.4" opacity="0.8"/>
    <circle cx="600" cy="80" r="1.6" opacity="0.7"/>
    <circle cx="750" cy="120" r="1.3" opacity="0.9"/>
    <circle cx="880" cy="70" r="1.4" opacity="0.8"/>
    <circle cx="950" cy="150" r="1.5" opacity="0.7"/>
  </g>
  
  <!-- Bright stars with glow -->
  <g filter="url(#glow)">
    <circle cx="150" cy="180" r="2.5" fill="white" opacity="0.95"/>
    <circle cx="150" cy="180" r="5" fill="url(#starGlow)" opacity="0.5"/>
    
    <circle cx="420" cy="350" r="3" fill="white" opacity="0.95"/>
    <circle cx="420" cy="350" r="8" fill="url(#starGlow)" opacity="0.5"/>
    
    <circle cx="780" cy="180" r="2.8" fill="white" opacity="0.95"/>
    <circle cx="780" cy="180" r="7" fill="url(#starGlow)" opacity="0.5"/>
    
    <circle cx="850" cy="650" r="3.2" fill="white" opacity="0.95"/>
    <circle cx="850" cy="650" r="9" fill="url(#starGlow)" opacity="0.5"/>
    
    <circle cx="250" cy="720" r="2.7" fill="white" opacity="0.95"/>
    <circle cx="250" cy="720" r="6" fill="url(#starGlow)" opacity="0.5"/>
    
    <circle cx="640" cy="480" r="3.5" fill="white" opacity="0.95"/>
    <circle cx="640" cy="480" r="10" fill="url(#starGlow)" opacity="0.5"/>
    
    <circle cx="300" cy="500" r="3" fill="#FFD700" opacity="0.9"/>
    <circle cx="300" cy="500" r="8" fill="url(#goldGlow)" opacity="0.5"/>
    
    <circle cx="750" cy="350" r="2.8" fill="#4169E1" opacity="0.9"/>
    <circle cx="750" cy="350" r="7" fill="url(#blueGlow)" opacity="0.5"/>
    
    <circle cx="520" cy="200" r="3.2" fill="#9370DB" opacity="0.9"/>
    <circle cx="520" cy="200" r="9" fill="url(#purpleGlow)" opacity="0.5"/>
  </g>
  
  <!-- Tiny pinpoint stars -->
  <g fill="white">
    <circle cx="50" cy="50" r="0.8" opacity="0.6"/>
    <circle cx="120" cy="80" r="0.7" opacity="0.7"/>
    <circle cx="190" cy="30" r="0.9" opacity="0.5"/>
    <circle cx="270" cy="70" r="0.8" opacity="0.6"/>
    <circle cx="320" cy="40" r="0.7" opacity="0.7"/>
    <circle cx="380" cy="90" r="0.9" opacity="0.5"/>
    <circle cx="440" cy="60" r="0.8" opacity="0.6"/>
    <circle cx="510" cy="40" r="0.7" opacity="0.7"/>
    <circle cx="580" cy="30" r="0.9" opacity="0.5"/>
    <circle cx="650" cy="60" r="0.8" opacity="0.6"/>
    <circle cx="720" cy="40" r="0.7" opacity="0.7"/>
    <circle cx="790" cy="90" r="0.9" opacity="0.5"/>
    <circle cx="850" cy="50" r="0.8" opacity="0.6"/>
    <circle cx="920" cy="80" r="0.7" opacity="0.7"/>
    <circle cx="970" cy="30" r="0.9" opacity="0.5"/>
  </g>
</svg>
