<?xml version="1.0" encoding="UTF-8" standalone="no"?>
<svg width="800px" height="800px" viewBox="0 0 800 800" version="1.1" xmlns="http://www.w3.org/2000/svg" xmlns:xlink="http://www.w3.org/1999/xlink">
  <defs>
    <radialGradient id="starGlow" cx="50%" cy="50%" r="50%" fx="50%" fy="50%">
      <stop offset="0%" stop-color="white" stop-opacity="1"/>
      <stop offset="100%" stop-color="white" stop-opacity="0"/>
    </radialGradient>
  </defs>
  <g id="stars" fill="white">
    <!-- Small stars -->
    <circle cx="50" cy="60" r="1" opacity="0.8"/>
    <circle cx="120" cy="45" r="0.8" opacity="0.6"/>
    <circle cx="200" cy="70" r="1.2" opacity="0.9"/>
    <circle cx="280" cy="30" r="0.7" opacity="0.7"/>
    <circle cx="350" cy="65" r="1" opacity="0.8"/>
    <circle cx="430" cy="40" r="0.6" opacity="0.5"/>
    <circle cx="500" cy="75" r="1.1" opacity="0.7"/>
    <circle cx="580" cy="50" r="0.8" opacity="0.6"/>
    <circle cx="650" cy="90" r="1" opacity="0.8"/>
    <circle cx="730" cy="55" r="0.7" opacity="0.5"/>
    
    <circle cx="80" cy="150" r="0.9" opacity="0.7"/>
    <circle cx="150" cy="135" r="1.1" opacity="0.8"/>
    <circle cx="230" cy="160" r="0.7" opacity="0.6"/>
    <circle cx="310" cy="120" r="1" opacity="0.9"/>
    <circle cx="380" cy="155" r="0.8" opacity="0.7"/>
    <circle cx="460" cy="130" r="1.2" opacity="0.8"/>
    <circle cx="530" cy="165" r="0.6" opacity="0.5"/>
    <circle cx="610" cy="140" r="1" opacity="0.7"/>
    <circle cx="680" cy="180" r="0.8" opacity="0.6"/>
    <circle cx="760" cy="145" r="1.1" opacity="0.8"/>
    
    <circle cx="40" cy="240" r="1" opacity="0.8"/>
    <circle cx="110" cy="225" r="0.7" opacity="0.6"/>
    <circle cx="190" cy="250" r="1.1" opacity="0.7"/>
    <circle cx="270" cy="210" r="0.8" opacity="0.5"/>
    <circle cx="340" cy="245" r="1" opacity="0.9"/>
    <circle cx="420" cy="220" r="0.6" opacity="0.6"/>
    <circle cx="490" cy="255" r="1.2" opacity="0.8"/>
    <circle cx="570" cy="230" r="0.7" opacity="0.7"/>
    <circle cx="640" cy="270" r="1" opacity="0.8"/>
    <circle cx="720" cy="235" r="0.8" opacity="0.6"/>
    
    <!-- Medium stars with glow -->
    <circle cx="150" cy="120" r="1.8" opacity="0.9" fill="url(#starGlow)"/>
    <circle cx="370" cy="250" r="2" opacity="0.8" fill="url(#starGlow)"/>
    <circle cx="590" cy="180" r="1.7" opacity="0.7" fill="url(#starGlow)"/>
    <circle cx="210" cy="450" r="1.9" opacity="0.9" fill="url(#starGlow)"/>
    <circle cx="630" cy="520" r="2.1" opacity="0.8" fill="url(#starGlow)"/>
    <circle cx="430" cy="650" r="1.8" opacity="0.7" fill="url(#starGlow)"/>
    <circle cx="310" cy="720" r="2" opacity="0.9" fill="url(#starGlow)"/>
    
    <!-- Larger stars with stronger glow -->
    <circle cx="250" cy="350" r="2.5" opacity="1" fill="url(#starGlow)"/>
    <circle cx="520" cy="400" r="2.8" opacity="0.9" fill="url(#starGlow)"/>
    <circle cx="150" cy="600" r="2.3" opacity="0.8" fill="url(#starGlow)"/>
    <circle cx="680" cy="280" r="2.6" opacity="1" fill="url(#starGlow)"/>
  </g>
</svg>
