<?xml version="1.0" encoding="UTF-8" standalone="no"?>
<svg width="800px" height="800px" viewBox="0 0 800 800" version="1.1" xmlns="http://www.w3.org/2000/svg" xmlns:xlink="http://www.w3.org/1999/xlink">
  <defs>
    <radialGradient id="twinkleGlow1" cx="50%" cy="50%" r="50%" fx="50%" fy="50%">
      <stop offset="0%" stop-color="white" stop-opacity="0.7"/>
      <stop offset="100%" stop-color="white" stop-opacity="0"/>
    </radialGradient>
    <radialGradient id="twinkleGlow2" cx="50%" cy="50%" r="50%" fx="50%" fy="50%">
      <stop offset="0%" stop-color="#9370DB" stop-opacity="0.5"/>
      <stop offset="100%" stop-color="#9370DB" stop-opacity="0"/>
    </radialGradient>
    <radialGradient id="twinkleGlow3" cx="50%" cy="50%" r="50%" fx="50%" fy="50%">
      <stop offset="0%" stop-color="#4B0082" stop-opacity="0.3"/>
      <stop offset="100%" stop-color="#4B0082" stop-opacity="0"/>
    </radialGradient>
  </defs>
  <g id="twinkles">
    <!-- White twinkles -->
    <circle cx="120" cy="100" r="4" fill="url(#twinkleGlow1)"/>
    <circle cx="350" cy="150" r="6" fill="url(#twinkleGlow1)"/>
    <circle cx="580" cy="80" r="5" fill="url(#twinkleGlow1)"/>
    <circle cx="220" cy="400" r="7" fill="url(#twinkleGlow1)"/>
    <circle cx="680" cy="320" r="4" fill="url(#twinkleGlow1)"/>
    <circle cx="420" cy="600" r="6" fill="url(#twinkleGlow1)"/>
    <circle cx="150" cy="700" r="5" fill="url(#twinkleGlow1)"/>
    
    <!-- Purple twinkles -->
    <circle cx="250" cy="180" r="8" fill="url(#twinkleGlow2)"/>
    <circle cx="480" cy="80" r="10" fill="url(#twinkleGlow2)"/>
    <circle cx="700" cy="250" r="7" fill="url(#twinkleGlow2)"/>
    <circle cx="150" cy="350" r="9" fill="url(#twinkleGlow2)"/>
    <circle cx="550" cy="450" r="12" fill="url(#twinkleGlow2)"/>
    <circle cx="300" cy="650" r="8" fill="url(#twinkleGlow2)"/>
    <circle cx="650" cy="700" r="10" fill="url(#twinkleGlow2)"/>
    
    <!-- Indigo twinkles -->
    <circle cx="80" cy="250" r="15" fill="url(#twinkleGlow3)"/>
    <circle cx="400" cy="200" r="20" fill="url(#twinkleGlow3)"/>
    <circle cx="620" cy="150" r="12" fill="url(#twinkleGlow3)"/>
    <circle cx="200" cy="500" r="18" fill="url(#twinkleGlow3)"/>
    <circle cx="450" cy="350" r="14" fill="url(#twinkleGlow3)"/>
    <circle cx="750" cy="500" r="16" fill="url(#twinkleGlow3)"/>
    <circle cx="300" cy="750" r="13" fill="url(#twinkleGlow3)"/>
  </g>
</svg>
