<?xml version="1.0" encoding="UTF-8"?>
<svg xmlns="http://www.w3.org/2000/svg" width="100" height="100" viewBox="0 0 100 100">
  <defs>
    <linearGradient id="grad1" x1="0%" y1="0%" x2="100%" y2="100%">
      <stop offset="0%" style="stop-color:#8A2BE2;stop-opacity:1" />
      <stop offset="100%" style="stop-color:#4B0082;stop-opacity:1" />
    </linearGradient>
    <filter id="glow" x="-20%" y="-20%" width="140%" height="140%">
      <feGaussianBlur stdDeviation="3" result="blur" />
      <feComposite in="SourceGraphic" in2="blur" operator="over" />
    </filter>
  </defs>
  
  <!-- Background Circle with Cosmic Gradient -->
  <circle cx="50" cy="50" r="45" fill="url(#grad1)" />
  
  <!-- Glowing Stars -->
  <g filter="url(#glow)">
    <circle cx="30" cy="30" r="2" fill="#FFFFFF" />
    <circle cx="65" cy="25" r="1.5" fill="#FFFFFF" />
    <circle cx="75" cy="45" r="1" fill="#FFFFFF" />
    <circle cx="60" cy="75" r="1.8" fill="#FFFFFF" />
    <circle cx="25" cy="65" r="1.2" fill="#FFFFFF" />
  </g>
  
  <!-- Sound Wave Visualization -->
  <g stroke="#FFFFFF" stroke-width="2" stroke-linecap="round">
    <path d="M35,50 Q40,40 45,50 Q50,60 55,50 Q60,40 65,50" />
    <path d="M40,50 Q45,35 50,50 Q55,65 60,50" opacity="0.7" />
    <path d="M45,50 Q48,45 50,50 Q52,55 55,50" opacity="0.5" />
  </g>
  
  <!-- Speech Bubble -->
  <path d="M50,25 Q65,25 65,40 Q65,55 50,55 Q35,55 35,40 Q35,25 50,25 Z" fill="none" stroke="#FFFFFF" stroke-width="2" />
  
  <!-- Heart Symbol (Emotion) -->
  <path d="M50,45 Q52,40 55,45 T60,45 Q65,45 60,55 Q55,60 50,65 Q45,60 40,55 Q35,45 40,45 Q43,45 45,45 T50,45 Z" fill="#FF69B4" opacity="0.8" />
</svg>